<svg width="36" height="32" viewBox="0 0 36 32" fill="none" xmlns="http://www.w3.org/2000/svg">
<path d="M17.9922 0.5L18.2891 0.519531C19.7545 0.689073 20.8816 1.92436 20.8896 3.43262V12.7803H32.5801C34.1939 12.7803 35.5 14.0864 35.5 15.7002V25.1504C35.4799 26.7535 34.1647 28.0486 32.5625 28.04H28.3135L28.1631 28.2354L25.8145 31.2939C25.7376 31.3934 25.6182 31.4517 25.5059 31.457C25.3584 31.4424 25.2399 31.3798 25.1562 31.2744L22.9424 28.2822L22.792 28.0801H18.0049C16.3807 28.0628 15.0825 26.7385 15.0996 25.1152V15.7695H14.084L13.9336 15.9658L11.584 19.0244C11.5109 19.1188 11.3885 19.1797 11.2598 19.1797C11.1318 19.1796 11.0093 19.1178 10.9316 19.0127L8.72266 16.0137L8.57227 15.8096H3.42285C1.80642 15.801 0.5 14.4932 0.5 12.8799V3.42969C0.500163 1.86676 1.72618 0.590708 3.27246 0.504883L3.42285 0.5H17.9922ZM18 13.5996C16.8328 13.5996 15.9027 14.5337 15.8896 15.6943V25.1504C15.8899 26.3164 16.834 27.2598 18 27.2598H23.0498C23.1766 27.2598 23.2982 27.3206 23.376 27.4238V27.4248L25.1562 29.8643L25.5508 30.4053L25.957 29.874L27.835 27.415L27.8359 27.416C27.909 27.3215 28.0313 27.2598 28.1602 27.2598H32.5859C33.7463 27.2466 34.6795 26.3173 34.6797 25.1504V15.7002C34.6797 14.5441 33.7362 13.5997 32.5801 13.5996H18ZM20.1104 3.41406C20.0972 2.2666 19.16 1.32001 18 1.33008H3.41992C2.26392 1.33012 1.32048 2.27371 1.32031 3.42969V12.8799C1.32031 14.036 2.26382 14.9804 3.41992 14.9805H8.78027C8.9063 14.9806 9.02437 15.0404 9.10156 15.1494L9.10645 15.1553L10.8867 17.5859L11.2803 18.123L11.6865 17.5947L13.5664 15.1445L13.5654 15.1436C13.6459 15.0403 13.7733 14.9806 13.8896 14.9805H15.1816L15.3057 14.6611C15.7149 13.6102 16.6803 12.892 17.7842 12.792L18.0068 12.7803H20.1104V3.41406Z" fill="#002E50" stroke="#002E50"/>
</svg>
