<svg width="32" height="32" viewBox="0 0 32 32" fill="none" xmlns="http://www.w3.org/2000/svg">
<path d="M28.8 20.2002C27.7 20.4002 26.8 20.2002 26.4 19.5002C26 18.8002 26.3 17.8002 27 17.0002C26.1 16.1002 25.1 15.5002 23.9 15.2002C23.6 16.2002 22.9 17.0002 22.1 17.0002C21.3 17.0002 20.6 16.3002 20.3 15.2002C19.1 15.5002 18 16.1002 17.2 17.0002C17.9 17.8002 18.2 18.8002 17.8 19.5002C17.4 20.2002 16.4 20.4002 15.4 20.2002C15.1 20.8002 15 21.4002 15 22.0002C15 22.6002 15.1 23.2002 15.2 23.8002C16.3 23.6002 17.2 23.8002 17.6 24.5002C18 25.2002 17.7 26.2002 17 27.0002C17.9 27.9002 18.9 28.5002 20.1 28.8002C20.4 27.8002 21.1 27.0002 21.9 27.0002C22.7 27.0002 23.4 27.7002 23.7 28.8002C24.9 28.5002 26 27.9002 26.8 27.0002C26.1 26.2002 25.8 25.2002 26.2 24.5002C26.6 23.8002 27.6 23.6002 28.6 23.8002C28.8 23.2002 28.8 22.6002 28.8 22.0002C28.8 21.4002 28.9 20.8002 28.8 20.2002Z" stroke="#002E50" stroke-width="2" stroke-miterlimit="10" stroke-linejoin="round"/>
<path d="M22 24C23.1046 24 24 23.1046 24 22C24 20.8954 23.1046 20 22 20C20.8954 20 20 20.8954 20 22C20 23.1046 20.8954 24 22 24Z" stroke="#002E50" stroke-width="2" stroke-miterlimit="10" stroke-linejoin="round"/>
<path d="M5 12H21" stroke="#002E50" stroke-width="2" stroke-miterlimit="10" stroke-linecap="round" stroke-linejoin="round"/>
<path d="M10.5 8.1L9.30005 3.9C11.6 2.7 14.4 2.7 16.7 3.9L15.5 8.1" stroke="#002E50" stroke-width="2" stroke-miterlimit="10" stroke-linecap="round" stroke-linejoin="round"/>
<path d="M16.5 4.90039C18.5 6.10039 19.8 8.30039 19.8 10.8004V12.0004" stroke="#002E50" stroke-width="2" stroke-miterlimit="10" stroke-linecap="round" stroke-linejoin="round"/>
<path d="M6.19995 12.0004V10.8004C6.19995 8.30039 7.49995 6.10039 9.49995 4.90039" stroke="#002E50" stroke-width="2" stroke-miterlimit="10" stroke-linecap="round" stroke-linejoin="round"/>
<path d="M8 12V14C8 16.1 8.9 18 10.5 19C10.5 21.1 9.2 22.9 7.3 23.4C5.1 24 3.5 26 3 28.4C3 28.7 3.2 29 3.5 29H13" stroke="#002E50" stroke-width="2" stroke-miterlimit="10" stroke-linecap="round" stroke-linejoin="round"/>
</svg>
