<?xml version="1.0" ?><!DOCTYPE svg  PUBLIC '-//W3C//DTD SVG 1.1//EN'  'http://www.w3.org/Graphics/SVG/1.1/DTD/svg11.dtd'><svg xmlns="http://www.w3.org/2000/svg" xmlns:xlink="http://www.w3.org/1999/xlink" version="1.1" id="Layer_1" width="512px" height="512px" viewBox="0 0 512 512" enable-background="new 0 0 512 512" xml:space="preserve"><path d="M127.162,398.814c-29.537,0-53.566-24.03-53.566-53.567s24.029-53.567,53.566-53.567s53.566,24.03,53.566,53.567  S156.699,398.814,127.162,398.814z M127.162,316.68c-15.752,0-28.566,12.815-28.566,28.567s12.814,28.567,28.566,28.567  s28.566-12.815,28.566-28.567S142.914,316.68,127.162,316.68z M185.34,498.5H68.98c-16.719,0-30.32-13.602-30.32-30.32v-14.24  c0-23.18,13.511-44.792,34.42-55.06c4.227-2.075,9.259-1.6,13.021,1.229c11.922,8.963,26.119,13.701,41.059,13.701  c14.936,0,29.139-4.739,41.072-13.704c3.763-2.826,8.796-3.3,13.021-1.225c20.901,10.271,34.407,31.882,34.407,55.059v14.24  C215.66,484.898,202.059,498.5,185.34,498.5z M78.199,424.958C69.2,431.771,63.66,442.539,63.66,453.94v14.24  c0,2.934,2.387,5.32,5.32,5.32H185.34c2.934,0,5.32-2.387,5.32-5.32v-14.24c0-11.399-5.539-22.168-14.534-28.982  c-14.702,9.087-31.466,13.853-48.966,13.853C109.656,438.81,92.895,434.045,78.199,424.958z M384.838,398.814  c-29.537,0-53.566-24.03-53.566-53.567s24.029-53.567,53.566-53.567s53.566,24.03,53.566,53.567S414.375,398.814,384.838,398.814z   M384.838,316.68c-15.752,0-28.566,12.815-28.566,28.567s12.814,28.567,28.566,28.567s28.566-12.815,28.566-28.567  S400.59,316.68,384.838,316.68z M443.02,498.5H326.66c-16.719,0-30.32-13.602-30.32-30.32v-14.24  c0-23.176,13.506-44.788,34.407-55.059c4.227-2.076,9.259-1.601,13.021,1.225c11.934,8.965,26.137,13.704,41.072,13.704  c14.939,0,29.137-4.738,41.059-13.701c3.762-2.829,8.795-3.304,13.021-1.229c20.909,10.268,34.42,31.88,34.42,55.06v14.24  C473.34,484.898,459.738,498.5,443.02,498.5z M335.874,424.958c-8.995,6.814-14.534,17.583-14.534,28.982v14.24  c0,2.934,2.387,5.32,5.32,5.32H443.02c2.934,0,5.32-2.387,5.32-5.32v-14.24c0-11.401-5.54-22.169-14.539-28.982  c-14.695,9.087-31.457,13.853-48.961,13.853C367.34,438.81,350.576,434.045,335.874,424.958z M256,120.633  c-29.537,0-53.566-24.03-53.566-53.566C202.434,37.53,226.463,13.5,256,13.5s53.566,24.03,53.566,53.567  C309.566,96.604,285.537,120.633,256,120.633z M256,38.5c-15.752,0-28.566,12.815-28.566,28.567  c0,15.751,12.814,28.566,28.566,28.566s28.566-12.815,28.566-28.566C284.566,51.315,271.752,38.5,256,38.5z M314.18,220.32H197.82  c-16.719,0-30.32-13.602-30.32-30.32v-14.24c0-23.177,13.506-44.789,34.407-55.059c4.227-2.076,9.258-1.602,13.021,1.225  c11.932,8.965,26.135,13.704,41.071,13.704s29.14-4.739,41.071-13.704c3.764-2.827,8.795-3.302,13.021-1.225  c20.901,10.27,34.407,31.882,34.407,55.059V190C344.5,206.719,330.898,220.32,314.18,220.32z M207.033,146.777  c-8.994,6.814-14.533,17.583-14.533,28.982V190c0,2.934,2.387,5.32,5.32,5.32H314.18c2.934,0,5.32-2.387,5.32-5.32v-14.24  c0-11.399-5.539-22.168-14.533-28.982c-14.702,9.087-31.466,13.853-48.967,13.853S221.735,155.865,207.033,146.777z M163.6,276.758  l21.884-28.678c4.188-5.488,3.134-13.333-2.354-17.521c-5.487-4.187-13.332-3.134-17.521,2.354l-21.884,28.678  c-4.188,5.488-3.134,13.333,2.354,17.52c2.265,1.728,4.93,2.563,7.574,2.563C157.417,281.676,161.14,279.982,163.6,276.758z   M365.921,279.112c5.488-4.188,6.542-12.032,2.354-17.52l-21.884-28.678c-4.19-5.489-12.034-6.542-17.521-2.354  c-5.488,4.188-6.542,12.032-2.354,17.521l21.884,28.678c2.461,3.224,6.182,4.917,9.946,4.917  C360.991,281.676,363.656,280.84,365.921,279.112z M317.527,345.247c0-6.903-5.597-12.5-12.5-12.5h-98.055  c-6.903,0-12.5,5.597-12.5,12.5s5.597,12.5,12.5,12.5h98.055C311.931,357.747,317.527,352.15,317.527,345.247z"/></svg>