<?xml version="1.0" ?><!DOCTYPE svg  PUBLIC '-//W3C//DTD SVG 1.1//EN'  'http://www.w3.org/Graphics/SVG/1.1/DTD/svg11.dtd'><svg xmlns="http://www.w3.org/2000/svg" xmlns:xlink="http://www.w3.org/1999/xlink" version="1.1" id="Layer_1" width="512px" height="512px" viewBox="0 0 512 512" enable-background="new 0 0 512 512" xml:space="preserve"><g><circle fill="#4771B7" cx="127.162" cy="345.247" r="41.067"/><path fill="#4771B7" d="M203.16,453.94v14.24c0,9.84-7.97,17.82-17.82,17.82H68.98c-9.84,0-17.82-7.98-17.82-17.82v-14.24   c0-19.19,11.22-35.88,27.43-43.84c13.54,10.18,30.37,16.21,48.57,16.21s35.03-6.03,48.58-16.21   C191.94,418.06,203.16,434.75,203.16,453.94z"/><circle fill="#4771B7" cx="384.838" cy="345.247" r="41.067"/><path fill="#4771B7" d="M460.84,453.94v14.24c0,9.84-7.98,17.82-17.82,17.82H326.66c-9.85,0-17.82-7.98-17.82-17.82v-14.24   c0-19.19,11.22-35.88,27.42-43.84c13.55,10.18,30.38,16.21,48.58,16.21s35.03-6.03,48.57-16.21   C449.62,418.06,460.84,434.75,460.84,453.94z"/><circle fill="#4771B7" cx="256" cy="67.067" r="41.067"/><path fill="#4771B7" d="M332,175.76V190c0,9.84-7.98,17.82-17.82,17.82H197.82c-9.84,0-17.82-7.98-17.82-17.82v-14.24   c0-19.18,11.22-35.88,27.42-43.84c13.55,10.18,30.38,16.21,48.58,16.21s35.03-6.03,48.58-16.21   C320.78,139.88,332,156.58,332,175.76z"/><g><g><path fill="#41464A" d="M153.653,281.676c-2.644,0-5.309-0.836-7.573-2.563c-5.488-4.188-6.542-12.032-2.354-17.521     l21.883-28.678c4.188-5.488,12.031-6.542,17.52-2.354c5.488,4.188,6.542,12.032,2.354,17.521L163.6,276.758     C161.14,279.982,157.418,281.676,153.653,281.676z"/></g></g><g><g><path fill="#41464A" d="M358.347,281.676c-3.765,0-7.486-1.694-9.947-4.918l-21.883-28.678     c-4.188-5.488-3.134-13.332,2.354-17.521c5.488-4.188,13.332-3.133,17.52,2.354l21.883,28.678     c4.188,5.488,3.134,13.332-2.354,17.521C363.656,280.84,360.991,281.676,358.347,281.676z"/></g></g><g><g><path fill="#41464A" d="M305.027,357.748h-98.054c-6.904,0-12.5-5.597-12.5-12.5s5.596-12.5,12.5-12.5h98.054     c6.904,0,12.5,5.597,12.5,12.5S311.931,357.748,305.027,357.748z"/></g></g></g></svg>