<svg width="512" height="512" viewBox="0 0 512 512" fill="none" xmlns="http://www.w3.org/2000/svg">
<path d="M127.162 398.814C97.625 398.814 73.596 374.784 73.596 345.247C73.596 315.71 97.625 291.68 127.162 291.68C156.699 291.68 180.728 315.71 180.728 345.247C180.728 374.784 156.699 398.814 127.162 398.814ZM127.162 316.68C111.41 316.68 98.596 329.495 98.596 345.247C98.596 360.999 111.41 373.814 127.162 373.814C142.914 373.814 155.728 360.999 155.728 345.247C155.728 329.495 142.914 316.68 127.162 316.68ZM185.34 498.5H68.98C52.261 498.5 38.66 484.898 38.66 468.18V453.94C38.66 430.76 52.171 409.148 73.08 398.88C77.307 396.805 82.339 397.28 86.101 400.109C98.023 409.072 112.22 413.81 127.16 413.81C142.096 413.81 156.299 409.071 168.232 400.106C171.995 397.28 177.028 396.806 181.253 398.881C202.154 409.152 215.66 430.763 215.66 453.94V468.18C215.66 484.898 202.059 498.5 185.34 498.5ZM78.199 424.958C69.2 431.771 63.66 442.539 63.66 453.94V468.18C63.66 471.114 66.047 473.5 68.98 473.5H185.34C188.274 473.5 190.66 471.113 190.66 468.18V453.94C190.66 442.541 185.121 431.772 176.126 424.958C161.424 434.045 144.66 438.811 127.16 438.811C109.656 438.81 92.895 434.045 78.199 424.958ZM384.838 398.814C355.301 398.814 331.272 374.784 331.272 345.247C331.272 315.71 355.301 291.68 384.838 291.68C414.375 291.68 438.404 315.71 438.404 345.247C438.404 374.784 414.375 398.814 384.838 398.814ZM384.838 316.68C369.086 316.68 356.272 329.495 356.272 345.247C356.272 360.999 369.086 373.814 384.838 373.814C400.59 373.814 413.404 360.999 413.404 345.247C413.404 329.495 400.59 316.68 384.838 316.68ZM443.02 498.5H326.66C309.941 498.5 296.34 484.898 296.34 468.18V453.94C296.34 430.764 309.846 409.152 330.747 398.881C334.974 396.805 340.006 397.28 343.768 400.106C355.702 409.071 369.905 413.81 384.84 413.81C399.779 413.81 413.977 409.072 425.899 400.109C429.661 397.28 434.694 396.805 438.92 398.88C459.829 409.148 473.34 430.76 473.34 453.94V468.18C473.34 484.898 459.738 498.5 443.02 498.5ZM335.874 424.958C326.879 431.772 321.34 442.541 321.34 453.94V468.18C321.34 471.114 323.727 473.5 326.66 473.5H443.02C445.954 473.5 448.34 471.113 448.34 468.18V453.94C448.34 442.539 442.8 431.771 433.801 424.958C419.106 434.045 402.344 438.811 384.84 438.811C367.34 438.81 350.576 434.045 335.874 424.958ZM256 120.633C226.463 120.633 202.434 96.603 202.434 67.067C202.434 37.53 226.463 13.5 256 13.5C285.537 13.5 309.566 37.53 309.566 67.067C309.566 96.604 285.537 120.633 256 120.633ZM256 38.5C240.248 38.5 227.434 51.315 227.434 67.067C227.434 82.818 240.248 95.633 256 95.633C271.752 95.633 284.566 82.818 284.566 67.067C284.566 51.315 271.752 38.5 256 38.5ZM314.18 220.32H197.82C181.101 220.32 167.5 206.718 167.5 190V175.76C167.5 152.583 181.006 130.971 201.907 120.701C206.134 118.625 211.165 119.099 214.928 121.926C226.86 130.891 241.063 135.63 255.999 135.63C270.935 135.63 285.139 130.891 297.07 121.926C300.834 119.099 305.865 118.624 310.091 120.701C330.992 130.971 344.498 152.583 344.498 175.76V190C344.5 206.719 330.898 220.32 314.18 220.32ZM207.033 146.777C198.039 153.591 192.5 164.36 192.5 175.759V190C192.5 192.934 194.887 195.32 197.82 195.32H314.18C317.114 195.32 319.5 192.933 319.5 190V175.76C319.5 164.361 313.961 153.592 304.967 146.778C290.265 155.865 273.501 160.631 256 160.631C238.499 160.631 221.735 155.865 207.033 146.777ZM163.6 276.758L185.484 248.08C189.672 242.592 188.618 234.747 183.13 230.559C177.643 226.372 169.798 227.425 165.609 232.913L143.725 261.591C139.537 267.079 140.591 274.924 146.079 279.111C148.344 280.839 151.009 281.674 153.653 281.674C157.417 281.676 161.14 279.982 163.6 276.758ZM365.921 279.112C371.409 274.924 372.463 267.08 368.275 261.592L346.391 232.914C342.201 227.425 334.357 226.372 328.87 230.56C323.382 234.748 322.328 242.592 326.516 248.081L348.4 276.759C350.861 279.983 354.582 281.676 358.346 281.676C360.991 281.676 363.656 280.84 365.921 279.112ZM317.527 345.247C317.527 338.344 311.93 332.747 305.027 332.747H206.972C200.069 332.747 194.472 338.344 194.472 345.247C194.472 352.15 200.069 357.747 206.972 357.747H305.027C311.931 357.747 317.527 352.15 317.527 345.247Z" fill="#002E50"/>
</svg>
