<svg width="736" height="627" viewBox="0 0 736 627" fill="none" xmlns="http://www.w3.org/2000/svg">
<path d="M533.25 514.95L530.1 510.25L557.775 492.65L483.95 376.5L453.6 395.8L440.575 376.325C461 358.15 474.875 332.775 478.175 304.15L579.475 451.675L735.575 404.55L458.325 0.775391L302.225 47.9004L392.925 179.975C383.85 177.65 374.35 176.425 364.575 176.425C316.7 176.425 275.7 205.85 258.65 247.6L156.275 98.5254L0.175049 145.65L277.425 549.425L433.525 502.3L366.85 405.2C389.05 404.775 409.7 398 427.075 386.65L439.275 404.9L413.625 421.2L487.45 537.35L515.775 519.35L518.775 523.85C493.475 542.25 475.775 571.4 470.275 604.525L621.025 510.2C588.525 499 558.2 502.2 533.25 514.95ZM607.75 597.475C607.75 613.425 594.825 626.35 578.875 626.35C562.925 626.35 550 613.425 550 597.475C550 581.525 562.925 568.6 578.875 568.6C594.825 568.6 607.75 581.525 607.75 597.475Z" fill="#002E50"/>
</svg>
